<svg id="_" data-name="+" xmlns="http://www.w3.org/2000/svg" width="6.25" height="6.24" viewBox="0 0 6.25 6.24">
  <defs>
    <style>
      .cls-1 {
        fill: #f4f4f4;
        fill-rule: evenodd;
      }
    </style>
  </defs>
  <path id="長方形_667" data-name="長方形 667" class="cls-1" d="M867.828,2556.17a1.006,1.006,0,0,1,0,1.42l-4.242,4.24a1,1,0,0,1-1.414-1.42l4.242-4.24A1,1,0,0,1,867.828,2556.17Z" transform="translate(-861.875 -2555.88)"/>
  <path id="長方形_667-2" data-name="長方形 667" class="cls-1" d="M867.828,2561.83a1,1,0,0,1-1.414,0l-4.242-4.24a1,1,0,0,1,1.414-1.42l4.242,4.24A1.006,1.006,0,0,1,867.828,2561.83Z" transform="translate(-861.875 -2555.88)"/>
</svg>
