<svg id="Close" xmlns="http://www.w3.org/2000/svg" width="14.72" height="14.72" viewBox="0 0 14.72 14.72">
  <defs>
    <style>
      .cls-1 {
        fill-rule: evenodd;
      }
    </style>
  </defs>
  <path id="長方形_1583" data-name="長方形 1583" class="cls-1" d="M1158.07,1871.93a1,1,0,0,1,0,1.41l-12.73,12.73a1,1,0,0,1-1.41-1.41l12.73-12.73A1,1,0,0,1,1158.07,1871.93Z" transform="translate(-1143.66 -1871.66)"/>
  <path id="長方形_1583-2" data-name="長方形 1583" class="cls-1" d="M1158.07,1886.07a1,1,0,0,1-1.41,0l-12.73-12.73a1,1,0,0,1,1.41-1.41l12.73,12.73A1,1,0,0,1,1158.07,1886.07Z" transform="translate(-1143.66 -1871.66)"/>
</svg>
