<svg id="_" data-name="&gt;" xmlns="http://www.w3.org/2000/svg" width="6.24" height="10.24" viewBox="0 0 6.24 10.24">
  <defs>
    <style>
      .cls-1 {
        fill: #f4f4f4;
        fill-rule: evenodd;
      }
    </style>
  </defs>
  <path id="長方形_667" data-name="長方形 667" class="cls-1" d="M1125.83,4446.17a1.008,1.008,0,0,1,0,1.42l-4.24,4.24a1,1,0,0,1-1.42-1.42l4.24-4.24A1.008,1.008,0,0,1,1125.83,4446.17Z" transform="translate(-1119.88 -4441.88)"/>
  <path id="長方形_667-2" data-name="長方形 667" class="cls-1" d="M1125.83,4447.83a1.008,1.008,0,0,1-1.42,0l-4.24-4.24a1,1,0,0,1,1.42-1.42l4.24,4.24A1.008,1.008,0,0,1,1125.83,4447.83Z" transform="translate(-1119.88 -4441.88)"/>
</svg>
