<svg id="グループ_2" data-name="グループ 2" xmlns="http://www.w3.org/2000/svg" width="12.969" height="21.6" viewBox="0 0 12.969 21.6">
  <defs>
    <style>
      .cls-1 {
        fill: #696969;
        fill-rule: evenodd;
      }
    </style>
  </defs>
  <path id="長方形_667" data-name="長方形 667" class="cls-1" d="M91.873,3740.15a2.13,2.13,0,0,0,0,2.98l8.805,8.95a2.057,2.057,0,0,0,2.934,0,2.129,2.129,0,0,0,0-2.98l-8.8-8.95A2.059,2.059,0,0,0,91.873,3740.15Z" transform="translate(-91.281 -3731.12)"/>
  <path id="長方形_667-2" data-name="長方形 667" class="cls-1" d="M91.873,3743.64a2.041,2.041,0,0,0,2.935,0l8.8-8.94a2.141,2.141,0,0,0,0-2.99,2.057,2.057,0,0,0-2.934,0l-8.805,8.95A2.13,2.13,0,0,0,91.873,3743.64Z" transform="translate(-91.281 -3731.12)"/>
</svg>
