<svg id="グループ_2" data-name="グループ 2" xmlns="http://www.w3.org/2000/svg" width="14.79" height="14.72" viewBox="0 0 14.79 14.72">
  <defs>
    <style>
      .cls-1 {
        fill: #696969;
        fill-rule: evenodd;
      }
    </style>
  </defs>
  <path id="長方形_667" data-name="長方形 667" class="cls-1" d="M1362.53,3847.25a1.008,1.008,0,0,1,0,1.42l-12.73,12.72a1,1,0,0,1-1.41-1.41l12.73-12.73A1,1,0,0,1,1362.53,3847.25Z" transform="translate(-1348.09 -3846.97)"/>
  <path id="長方形_667-2" data-name="長方形 667" class="cls-1" d="M1362.57,3861.4a1,1,0,0,1-1.41,0l-12.73-12.73a1,1,0,0,1,1.41-1.41l12.73,12.73A1,1,0,0,1,1362.57,3861.4Z" transform="translate(-1348.09 -3846.97)"/>
</svg>
